<?xml version="1.0" encoding="UTF-8"?><svg id="Layer_2" xmlns="http://www.w3.org/2000/svg" viewBox="0 0 512 512.02"><defs><style>.cls-1{fill:#991b32;}</style></defs><g id="Layer_1-2"><path class="cls-1" d="M256,480c123.7,0,224-100.3,224-224S379.7,32,256,32,32,132.3,32,256c0,10.4,.71,20.6,2.07,30.6l-9.62,3.6c-7.84,2.8-14.67,7.7-19.95,13.9C1.55,288.5,0,272.4,0,256,0,114.6,114.6,0,256,0s256,114.6,256,256-114.6,256-256,256c-16.4,0-32.5-1.5-48.1-4.5,6.2-5.3,10.2-12.1,13.9-19.9l3.6-9.7c10,1.4,20.2,2.1,30.6,2.1h0Zm4-96.1c68.9-2.1,124-58.6,124-127.9s-57.3-128-128-128-125.8,55.1-127.9,123.1l-31.92,12.6c-.12-2.5-1.08-5.1-1.08-8.6,0-87.5,72.5-160,160-160s160.9,72.5,160.9,160-71.6,160.9-160.9,160.9c-1.7,0-4.3-.1-6.8-.2l11.7-31.9Zm-68.2,92.6c-2.3,6.2-8.1,10.3-14.7,9.6-6.6,1-12.6-3-15.1-9l-30.5-74L27.31,507.3c-6.24,6.3-16.37,6.3-22.62,0-6.25-6.2-6.25-16.4,0-22.6l104.21-104.2-73.95-31.4c-6.1-1.6-10.03-7.6-9.91-14.2,.13-6.6,4.28-12.4,10.47-14.7l214.99-80.1c5.8-1.3,12.4,.2,16.8,4.6,4.4,4.4,5.9,11,3.7,16.8l-79.2,215Zm-39.8-107.8l23.1,58.2,53.9-144.8-143.93,53.9,58.23,24c3.9,1.6,7.1,4.8,8.7,8.7h0Z"/></g></svg>