<?xml version="1.0" encoding="UTF-8"?><svg id="Layer_2" xmlns="http://www.w3.org/2000/svg" viewBox="0 0 283.46 283.46"><defs><style>.cls-1{font-family:Gabriela-Regular, Gabriela;font-size:28px;}.cls-1,.cls-2{fill:#e94a6c;}.cls-2{stroke:#e94a6c;stroke-miterlimit:10;}.cls-3{fill:none;}</style></defs><g id="Layer_1-2"><path class="cls-2" d="M75.73,92.81h0s0,.06-.02,.08c-3.89,14.67-8.95,32.06-21.2,42.28-3.03,2.53-9.52,7.77-14.31,11.6l37.2,47.12c.25-.15,.48-.29,.67-.42,18.46-11.54,4.81-2.82,18.23-12.06,20.42-14.06,46.86-8.07,67.35-23.44,.16-.12,.33-.24,.48-.36,23-17.69,44.98-36.33,66.2-56.11,3.88-3.68,7.79-8.85,2.63-16.11-3.3-4.65-8.03-6.11-12.24-2.36-11.02,9.74-22.16,19.33-33.43,28.78-1.44,1.19-3.53,.86-4.66-.74-1.13-1.59-.87-3.87,.59-5.07,16.76-13.93,33.25-28.13,49.5-42.65,4.24-3.82,7.08-8.28,2.95-15.67-2.66-4.76-8.69-5.36-13.16-1.58-15.33,12.87-30.75,25.63-46.28,38.27-1.51,1.23-3.69,.94-4.86-.61-1.17-1.56-.88-3.82,.64-5.05,17.51-14.11,34.92-28.32,52.26-42.65,4.53-3.75,5.8-10.41,2.6-14.66-3.21-4.25-9.79-4.61-14.45-1-17.83,13.83-35.63,27.7-53.4,41.61-1.55,1.21-3.8,.96-5.03-.55-1.23-1.52-.17-2.74,1.37-3.95,14.04-10.91,28.12-21.77,42.23-32.58,4.68-3.58,5.59-9.81,1.79-13.77-3.8-3.96-10.88-4.31-15.57-.93-11.45,8.25-22.82,16.69-34.11,25.18-3.14,2.37-3.56,4.29-3.81,5.27-3.05,12.26-2.36,8.81-2.78,10.49-2.36,9.54,.09,10.24,7.24,21.98,0,.01,.01,.02,.01,.03h0c.43,.91,.79,1.82,1.11,2.75,2.57,7.46,8.2,24.79,8.2,24.79,1.11,3.23-.36,6.61-3.29,7.53-2.92,.92-6.27-.92-7.42-4.13,0,0-2.76-6.56-3.03-7.23-.26-.67-1.15-2.34-1.78,.24-2.75,11.27-5.44,22.56-7.98,33.89-.53,2.36-3.04,3.76-5.62,3.17-2.58-.59-4.24-2.95-3.69-5.32,2-8.58,3.06-12.99,5.23-21.9,.2-.82,.23-1.52-.62-1.72-.84-.2-1.69,.3-1.89,1.12-2.76,11.3-4.11,16.88-6.6,27.62-.54,2.34-3.08,3.76-5.68,3.2-2.6-.56-4.25-2.89-3.69-5.25,2.61-10.82,4-16.44,6.82-27.78,.2-.82-.31-1.66-1.15-1.86-.84-.2-1.69,.31-1.9,1.13-2.54,10.16-3.8,15.2-6.19,24.97-.58,2.38-3.15,3.84-5.72,3.29-2.58-.55-4.17-2.92-3.57-5.32,2.78-11.01,4.23-16.7,7.14-28.14,.21-.83-.29-1.67-1.13-1.88-.83-.2-1.68,.31-1.89,1.14-2,7.84-3,11.74-4.96,19.41-.62,2.45-3.18,3.95-5.7,3.38-2.52-.57-4.03-3.01-3.39-5.47,3.54-13.6,7.07-27.21,10.49-40.85,.02-.09,.05-.19,.07-.28,2.66-11.02,12.25-16.14,15.61-26.54,.14-.56,.21-.84,.36-1.4,.76-3.16-1.71,7.17-.24,1.27,.71-2.88,1.05-4.32,1.73-7.16,2.23-7.06-1.75-14.44-8.62-16.83-6.89-2.4-13.88,1-15.94,7.84-5.54,18.45-11.84,36.93-17.89,55.35-.71,2.16-1.33,4.36-1.84,6.62Z"/><rect class="cls-3" width="283.46" height="283.46"/><text class="cls-1" transform="translate(67.12 235.11)"><tspan x="0" y="0">Chiang Mai</tspan><tspan x="2.14" y="33.6">Babysitters</tspan></text></g></svg>