<?xml version="1.0" encoding="UTF-8"?><svg xmlns="http://www.w3.org/2000/svg" xmlns:xlink="http://www.w3.org/1999/xlink" viewBox="0 0 612.12 785.45"><defs><style>.cls-1{fill:url(#linear-gradient-75);}.cls-2{fill:url(#radial-gradient-39);}.cls-3{fill:url(#radial-gradient-46);}.cls-4{fill:url(#linear-gradient-2);}.cls-5{fill:url(#radial-gradient-7);}.cls-6{fill:url(#linear-gradient-51);}.cls-7{fill:url(#radial-gradient-34);}.cls-8{fill:url(#radial-gradient-10);}.cls-9{fill:url(#radial-gradient-47);}.cls-10{fill:url(#linear-gradient-17);}.cls-11{fill:url(#radial-gradient-48);}.cls-12{fill:url(#radial-gradient-31);}.cls-13{fill:url(#linear-gradient-87);}.cls-14{fill:url(#linear-gradient-93);}.cls-15{fill:url(#linear-gradient-92);}.cls-16{fill:url(#linear-gradient-80);}.cls-17{fill:url(#linear-gradient-43);}.cls-18{fill:url(#radial-gradient-28);}.cls-19{fill:url(#linear-gradient-15);}.cls-20{fill:url(#linear-gradient-58);}.cls-21{fill:url(#linear-gradient-69);}.cls-22{fill:url(#linear-gradient-81);}.cls-23{fill:url(#linear-gradient-18);}.cls-24{fill:url(#linear-gradient-56);}.cls-25{fill:url(#linear-gradient-40);}.cls-26{fill:url(#linear-gradient-52);}.cls-27{fill:url(#linear-gradient-28);}.cls-28{fill:url(#radial-gradient-16);}.cls-29{fill:url(#radial-gradient-50);}.cls-30{fill:url(#radial-gradient-20);}.cls-31{fill:url(#linear-gradient-14);}.cls-32{fill:url(#radial-gradient-21);}.cls-33{fill:url(#radial-gradient-8);}.cls-34{fill:url(#linear-gradient-36);}.cls-35{fill:url(#linear-gradient-78);}.cls-36{fill:url(#linear-gradient-20);}.cls-37{fill:url(#linear-gradient-6);}.cls-38{fill:url(#radial-gradient-5);}.cls-39{fill:url(#linear-gradient-53);}.cls-40{fill:url(#radial-gradient-4);}.cls-41{isolation:isolate;}.cls-42{fill:url(#linear-gradient-91);}.cls-43{fill:url(#radial-gradient-40);}.cls-44{fill:url(#linear-gradient-60);}.cls-45{fill:url(#linear-gradient-84);}.cls-46{letter-spacing:-.06em;}.cls-47{fill:url(#linear-gradient-35);}.cls-48{fill:url(#linear-gradient-48);}.cls-49{fill:url(#radial-gradient-32);}.cls-50{fill:url(#linear-gradient-32);}.cls-51{fill:url(#radial-gradient-52);}.cls-52{fill:url(#linear-gradient-11);}.cls-53{fill:url(#radial-gradient-25);}.cls-54{fill:url(#linear-gradient-50);}.cls-55{fill:url(#radial-gradient-26);}.cls-56{fill:url(#linear-gradient-63);}.cls-57{fill:url(#linear-gradient-67);}.cls-58{fill:url(#linear-gradient-95);}.cls-59{fill:url(#linear-gradient-86);}.cls-60{fill:url(#radial-gradient-22);}.cls-61{fill:url(#linear-gradient-39);}.cls-62{fill:url(#radial-gradient-6);}.cls-63{fill:url(#radial-gradient-19);}.cls-64{fill:url(#radial-gradient-12);}.cls-65{fill:url(#linear-gradient-10);}.cls-66{fill:url(#radial-gradient-49);}.cls-67{fill:url(#linear-gradient-59);}.cls-68{fill:url(#radial-gradient-41);}.cls-69{fill:url(#radial-gradient-35);}.cls-70{fill:url(#radial-gradient);}.cls-71{fill:url(#linear-gradient-49);}.cls-72{fill:url(#linear-gradient-37);}.cls-73{fill:url(#radial-gradient-27);}.cls-74{fill:url(#radial-gradient-13);}.cls-75{fill:url(#linear-gradient-82);}.cls-76{fill:url(#linear-gradient-16);}.cls-77{fill:url(#linear-gradient-31);}.cls-78{fill:url(#linear-gradient-85);}.cls-79{fill:url(#linear-gradient-61);}.cls-80{fill:url(#linear-gradient-68);}.cls-81{fill:url(#linear-gradient-62);}.cls-82{fill:url(#linear-gradient-41);}.cls-83{fill:url(#linear-gradient-76);}.cls-84{fill:#f5842b;font-family:Perpetua-Bold, Perpetua;font-size:115px;}.cls-85{fill:url(#linear-gradient-21);}.cls-86{fill:url(#linear-gradient-72);}.cls-87{fill:url(#radial-gradient-43);}.cls-88{fill:url(#radial-gradient-30);}.cls-89{fill:url(#linear-gradient-25);}.cls-90{fill:url(#linear-gradient-89);}.cls-91{fill:url(#radial-gradient-51);}.cls-92{fill:url(#linear-gradient-5);}.cls-93{fill:url(#linear-gradient-64);}.cls-94{fill:url(#radial-gradient-24);}.cls-95{fill:url(#linear-gradient-83);}.cls-96{fill:url(#linear-gradient-54);}.cls-97{fill:url(#radial-gradient-15);}.cls-98{fill:url(#linear-gradient-45);}.cls-99{fill:url(#linear-gradient-55);}.cls-100{fill:url(#radial-gradient-2);}.cls-101{fill:url(#linear-gradient-34);}.cls-102{fill:url(#linear-gradient-65);}.cls-103{fill:url(#linear-gradient-70);}.cls-104{fill:url(#radial-gradient-38);}.cls-105{fill:url(#linear-gradient-79);}.cls-106{fill:url(#radial-gradient-3);}.cls-107{fill:url(#linear-gradient-88);}.cls-108{fill:url(#linear-gradient-7);}.cls-109{fill:url(#radial-gradient-42);}.cls-110{fill:url(#linear-gradient-66);}.cls-111{fill:url(#linear-gradient-24);}.cls-112{fill:url(#linear-gradient-73);}.cls-113{mix-blend-mode:overlay;}.cls-114{fill:url(#radial-gradient-45);}.cls-115{fill:url(#linear-gradient-9);}.cls-116{fill:url(#radial-gradient-17);}.cls-117{fill:url(#linear-gradient-22);}.cls-118{fill:url(#linear-gradient-74);}.cls-119{fill:url(#linear-gradient-42);}.cls-120{fill:url(#radial-gradient-33);}.cls-121{fill:url(#radial-gradient-14);}.cls-122{fill:url(#linear-gradient-3);}.cls-123{fill:url(#radial-gradient-37);}.cls-124{fill:url(#linear-gradient);}.cls-125{fill:url(#radial-gradient-29);}.cls-126{fill:url(#linear-gradient-27);}.cls-127{fill:url(#linear-gradient-33);}.cls-128{fill:url(#linear-gradient-38);}.cls-129{fill:url(#linear-gradient-94);}.cls-130{fill:url(#linear-gradient-29);}.cls-131{fill:url(#linear-gradient-30);}.cls-132{fill:url(#radial-gradient-23);}.cls-133{fill:url(#radial-gradient-36);}.cls-134{fill:url(#linear-gradient-23);}.cls-135{fill:url(#linear-gradient-19);}.cls-136{fill:url(#linear-gradient-71);}.cls-137{fill:url(#linear-gradient-4);}.cls-138{fill:url(#linear-gradient-77);}.cls-139{fill:url(#radial-gradient-11);}.cls-140{fill:url(#radial-gradient-18);}.cls-141{fill:url(#radial-gradient-9);}.cls-142{fill:url(#linear-gradient-8);}.cls-143{fill:url(#linear-gradient-90);}.cls-144{fill:url(#linear-gradient-44);}.cls-145{fill:url(#linear-gradient-57);}.cls-146{fill:url(#radial-gradient-44);}.cls-147{fill:url(#linear-gradient-47);}.cls-148{fill:url(#linear-gradient-46);}.cls-149{fill:url(#linear-gradient-12);}.cls-150{fill:url(#linear-gradient-13);}.cls-151{fill:url(#linear-gradient-26);}</style><linearGradient id="linear-gradient" x1="204.17" y1="-5.29" x2="340.8" y2="78.79" gradientTransform="matrix(1, 0, 0, 1, 0, 0)" gradientUnits="userSpaceOnUse"><stop offset="0" stop-color="#29abe2"/><stop offset="1" stop-color="#090033"/></linearGradient><linearGradient id="linear-gradient-2" x1="141.75" y1="-30.58" x2="361.44" y2="104.62" xlink:href="#linear-gradient"/><linearGradient id="linear-gradient-3" x1="155.05" y1="-52.15" x2="374.71" y2="83.02" xlink:href="#linear-gradient"/><linearGradient id="linear-gradient-4" x1="130.78" y1="-12.78" x2="350.48" y2="122.42" xlink:href="#linear-gradient"/><linearGradient id="linear-gradient-5" x1="125.85" y1="-4.77" x2="345.52" y2="130.41" xlink:href="#linear-gradient"/><linearGradient id="linear-gradient-6" x1="95.23" y1="44.96" x2="314.97" y2="180.18" xlink:href="#linear-gradient"/><linearGradient id="linear-gradient-7" x1="110.49" y1="20.16" x2="330.24" y2="155.39" xlink:href="#linear-gradient"/><linearGradient id="linear-gradient-8" x1="99.11" y1="84.22" x2="285.66" y2="199.02" xlink:href="#linear-gradient"/><linearGradient id="linear-gradient-9" x1="143.98" y1="24.46" x2="322.86" y2="134.54" xlink:href="#linear-gradient"/><linearGradient id="linear-gradient-10" x1="172.01" y1="-.43" x2="327.29" y2="124.21" xlink:href="#linear-gradient"/><linearGradient id="linear-gradient-11" x1="204.16" y1="-40.47" x2="359.43" y2="84.16" xlink:href="#linear-gradient"/><linearGradient id="linear-gradient-12" x1="182.44" y1="-13.37" x2="337.63" y2="111.2" xlink:href="#linear-gradient"/><linearGradient id="linear-gradient-13" x1="143.69" y1="34.82" x2="299" y2="159.49" xlink:href="#linear-gradient"/><linearGradient id="linear-gradient-14" x1="128.9" y1="53.25" x2="284.18" y2="177.9" xlink:href="#linear-gradient"/><linearGradient id="linear-gradient-15" x1="114.02" y1="71.75" x2="269.33" y2="196.42" xlink:href="#linear-gradient"/><linearGradient id="linear-gradient-16" x1="159.32" y1="12.39" x2="316.75" y2="138.77" xlink:href="#linear-gradient"/><linearGradient id="linear-gradient-17" x1="224.37" y1="-9.63" x2="340.11" y2="83.28" xlink:href="#linear-gradient"/><linearGradient id="linear-gradient-18" x1="359.08" y1="-53.08" x2="772.75" y2="432.63" gradientTransform="matrix(1, 0, 0, 1, 0, 0)" gradientUnits="userSpaceOnUse"><stop offset="0" stop-color="#fbb03b"/><stop offset="1" stop-color="#f15a24"/></linearGradient><linearGradient id="linear-gradient-19" x1="371.53" y1="-63.66" x2="785.19" y2="422.04" xlink:href="#linear-gradient-18"/><linearGradient id="linear-gradient-20" x1="365.96" y1="-58.94" x2="779.65" y2="426.8" xlink:href="#linear-gradient-18"/><linearGradient id="linear-gradient-21" x1="297.34" y1="-.48" x2="711.19" y2="485.44" xlink:href="#linear-gradient-18"/><linearGradient id="linear-gradient-22" x1="356.96" y1="-51.25" x2="770.61" y2="434.44" xlink:href="#linear-gradient-18"/><linearGradient id="linear-gradient-23" x1="364.51" y1="-57.67" x2="778.16" y2="428.01" xlink:href="#linear-gradient-18"/><linearGradient id="linear-gradient-24" x1="280.26" y1="14.18" x2="693.97" y2="499.94" xlink:href="#linear-gradient-18"/><linearGradient id="linear-gradient-25" x1="304.55" y1="-6.6" x2="718.31" y2="479.22" xlink:href="#linear-gradient-18"/><linearGradient id="linear-gradient-26" x1="287.55" y1="7.87" x2="701.21" y2="493.56" xlink:href="#linear-gradient-18"/><linearGradient id="linear-gradient-27" x1="344.14" y1="-40.3" x2="757.76" y2="445.34" xlink:href="#linear-gradient-18"/><linearGradient id="linear-gradient-28" x1="302.02" y1="-4.99" x2="716.07" y2="481.17" xlink:href="#linear-gradient-18"/><linearGradient id="linear-gradient-29" x1="329.44" y1="-27.55" x2="743.18" y2="458.24" xlink:href="#linear-gradient-18"/><linearGradient id="linear-gradient-30" x1="248.52" y1="41.07" x2="661.91" y2="526.45" xlink:href="#linear-gradient-18"/><linearGradient id="linear-gradient-31" x1="365.92" y1="-58.85" x2="779.5" y2="426.76" xlink:href="#linear-gradient-18"/><linearGradient id="linear-gradient-32" x1="345.98" y1="-41.88" x2="759.55" y2="443.72" xlink:href="#linear-gradient-18"/><linearGradient id="linear-gradient-33" x1="319.13" y1="-19.02" x2="732.74" y2="466.62" xlink:href="#linear-gradient-18"/><linearGradient id="linear-gradient-34" x1="350.02" y1="-45.33" x2="763.64" y2="440.33" xlink:href="#linear-gradient-18"/><linearGradient id="linear-gradient-35" x1="310.39" y1="-11.78" x2="726.27" y2="476.53" xlink:href="#linear-gradient-18"/><linearGradient id="linear-gradient-36" x1="319.42" y1="-19.28" x2="733.12" y2="466.46" xlink:href="#linear-gradient-18"/><linearGradient id="linear-gradient-37" x1="331.69" y1="-29.71" x2="745.24" y2="455.85" xlink:href="#linear-gradient-18"/><linearGradient id="linear-gradient-38" x1="315.96" y1="-16.32" x2="729.57" y2="469.33" xlink:href="#linear-gradient-18"/><linearGradient id="linear-gradient-39" x1="311.77" y1="-12.77" x2="725.41" y2="472.91" xlink:href="#linear-gradient-18"/><linearGradient id="linear-gradient-40" x1="322.67" y1="-22.45" x2="736.28" y2="463.19" xlink:href="#linear-gradient-18"/><linearGradient id="linear-gradient-41" x1="305.44" y1="-7.38" x2="719.12" y2="478.36" xlink:href="#linear-gradient-18"/><linearGradient id="linear-gradient-42" x1="337.19" y1="-34.39" x2="750.8" y2="451.26" xlink:href="#linear-gradient-18"/><linearGradient id="linear-gradient-43" x1="316.9" y1="-17.14" x2="730.62" y2="468.64" xlink:href="#linear-gradient-18"/><linearGradient id="linear-gradient-44" x1="346.73" y1="-42.55" x2="760.43" y2="443.21" xlink:href="#linear-gradient-18"/><linearGradient id="linear-gradient-45" x1="338.12" y1="-35.23" x2="751.84" y2="450.55" xlink:href="#linear-gradient-18"/><linearGradient id="linear-gradient-46" x1="345.3" y1="-41.34" x2="759" y2="444.41" xlink:href="#linear-gradient-18"/><linearGradient id="linear-gradient-47" x1="274.36" y1="19.1" x2="687.96" y2="504.74" xlink:href="#linear-gradient-18"/><linearGradient id="linear-gradient-48" x1="229.09" y1="57.66" x2="642.71" y2="543.32" xlink:href="#linear-gradient-18"/><linearGradient id="linear-gradient-49" x1="171.63" y1="106.63" x2="585.23" y2="592.26" xlink:href="#linear-gradient-18"/><linearGradient id="linear-gradient-50" x1="108.75" y1="160.37" x2="522.41" y2="646.07" xlink:href="#linear-gradient-18"/><linearGradient id="linear-gradient-51" x1="98.22" y1="169.19" x2="511.79" y2="654.79" xlink:href="#linear-gradient-18"/><linearGradient id="linear-gradient-52" x1="273.72" y1="19.67" x2="687.31" y2="505.3" xlink:href="#linear-gradient-18"/><linearGradient id="linear-gradient-53" x1="251.04" y1="39.17" x2="664.54" y2="524.68" xlink:href="#linear-gradient-18"/><linearGradient id="linear-gradient-54" x1="274.05" y1="19.34" x2="687.72" y2="505.06" xlink:href="#linear-gradient-18"/><linearGradient id="linear-gradient-55" x1="267.19" y1="25.21" x2="680.84" y2="510.89" xlink:href="#linear-gradient-18"/><linearGradient id="linear-gradient-56" x1="-32.5" y1="280.42" x2="381.16" y2="766.14" xlink:href="#linear-gradient-18"/><linearGradient id="linear-gradient-57" x1="273.61" y1="19.71" x2="687.28" y2="505.43" xlink:href="#linear-gradient-18"/><linearGradient id="linear-gradient-58" x1="-17.28" y1="267.38" x2="396.47" y2="753.18" xlink:href="#linear-gradient-18"/><linearGradient id="linear-gradient-59" x1="43.51" y1="215.48" x2="457.13" y2="701.13" xlink:href="#linear-gradient-18"/><linearGradient id="linear-gradient-60" x1="225.71" y1="60.82" x2="639.17" y2="546.28" xlink:href="#linear-gradient-18"/><linearGradient id="linear-gradient-61" x1="-36.62" y1="283.81" x2="377.19" y2="769.69" xlink:href="#linear-gradient-18"/><linearGradient id="linear-gradient-62" x1="192.43" y1="88.78" x2="606.14" y2="574.54" xlink:href="#linear-gradient-18"/><linearGradient id="linear-gradient-63" x1="2.12" y1="250.99" x2="415.74" y2="736.64" xlink:href="#linear-gradient-18"/><linearGradient id="linear-gradient-64" x1="48.67" y1="211.3" x2="462.36" y2="697.02" xlink:href="#linear-gradient-18"/><linearGradient id="linear-gradient-65" x1="-16.42" y1="266.8" x2="397.2" y2="752.44" xlink:href="#linear-gradient-18"/><linearGradient id="linear-gradient-66" x1="-26.54" y1="275.26" x2="387.22" y2="761.09" xlink:href="#linear-gradient-18"/><linearGradient id="linear-gradient-67" x1="206.54" y1="76.77" x2="620.27" y2="562.55" xlink:href="#linear-gradient-18"/><linearGradient id="linear-gradient-68" x1="43.77" y1="215.58" x2="457.34" y2="701.18" xlink:href="#linear-gradient-18"/><linearGradient id="linear-gradient-69" x1="152.85" y1="122.56" x2="566.53" y2="608.28" xlink:href="#linear-gradient-18"/><linearGradient id="linear-gradient-70" x1="134.46" y1="137.65" x2="548.5" y2="623.79" xlink:href="#linear-gradient-18"/><linearGradient id="linear-gradient-71" x1="129.42" y1="142.55" x2="543.07" y2="628.25" xlink:href="#linear-gradient-18"/><linearGradient id="linear-gradient-72" x1="4.9" y1="248.61" x2="418.54" y2="734.29" xlink:href="#linear-gradient-18"/><linearGradient id="linear-gradient-73" x1="143.52" y1="130.74" x2="557.03" y2="616.26" xlink:href="#linear-gradient-18"/><linearGradient id="linear-gradient-74" x1="12.31" y1="242.38" x2="425.88" y2="727.98" xlink:href="#linear-gradient-18"/><linearGradient id="linear-gradient-75" x1="189.54" y1="90.98" x2="603.43" y2="576.95" xlink:href="#linear-gradient-18"/><linearGradient id="linear-gradient-76" x1="77.61" y1="186.53" x2="491.36" y2="672.33" xlink:href="#linear-gradient-18"/><linearGradient id="linear-gradient-77" x1="86.94" y1="178.92" x2="500.44" y2="664.45" xlink:href="#linear-gradient-18"/><linearGradient id="linear-gradient-78" x1="108.47" y1="160.55" x2="522.01" y2="646.11" xlink:href="#linear-gradient-18"/><linearGradient id="linear-gradient-79" x1="164.84" y1="111.99" x2="578.74" y2="597.98" xlink:href="#linear-gradient-18"/><linearGradient id="linear-gradient-80" x1="217.12" y1="67.77" x2="630.85" y2="553.54" xlink:href="#linear-gradient-18"/><linearGradient id="linear-gradient-81" x1="223.17" y1="62.65" x2="636.86" y2="548.39" xlink:href="#linear-gradient-18"/><linearGradient id="linear-gradient-82" x1="161.62" y1="115.2" x2="575.18" y2="600.78" xlink:href="#linear-gradient-18"/><linearGradient id="linear-gradient-83" x1="44" y1="215.22" x2="457.71" y2="700.98" xlink:href="#linear-gradient-18"/><linearGradient id="linear-gradient-84" x1="92.29" y1="174.07" x2="506.03" y2="659.86" xlink:href="#linear-gradient-18"/><linearGradient id="linear-gradient-85" x1="64.9" y1="198.1" x2="478.14" y2="683.31" xlink:href="#linear-gradient-18"/><linearGradient id="linear-gradient-86" x1="19.45" y1="235.82" x2="433.38" y2="721.84" xlink:href="#linear-gradient-18"/><linearGradient id="linear-gradient-87" x1="-1.21" y1="253.88" x2="412.37" y2="739.49" xlink:href="#linear-gradient-18"/><linearGradient id="linear-gradient-88" x1="41.48" y1="217.82" x2="454.87" y2="703.2" xlink:href="#linear-gradient-18"/><linearGradient id="linear-gradient-89" x1="250.56" y1="39.77" x2="663.95" y2="525.15" xlink:href="#linear-gradient-18"/><linearGradient id="linear-gradient-90" x1="305.27" y1="-7.26" x2="718.96" y2="478.47" xlink:href="#linear-gradient-18"/><linearGradient id="linear-gradient-91" x1="315.15" y1="-15.68" x2="728.85" y2="470.07" xlink:href="#linear-gradient-18"/><linearGradient id="linear-gradient-92" x1="282.78" y1="11.95" x2="696.42" y2="497.63" xlink:href="#linear-gradient-18"/><linearGradient id="linear-gradient-93" x1="308.01" y1="-9.52" x2="721.57" y2="476.07" xlink:href="#linear-gradient-18"/><linearGradient id="linear-gradient-94" x1="314.63" y1="-15.21" x2="728.29" y2="470.49" xlink:href="#linear-gradient-18"/><linearGradient id="linear-gradient-95" x1="300.1" y1="-2.83" x2="713.78" y2="482.89" xlink:href="#linear-gradient-18"/><radialGradient id="radial-gradient" cx="686.39" cy="174.59" fx="686.39" fy="174.59" r="711.22" gradientTransform="matrix(1, 0, 0, 1, 0, 0)" gradientUnits="userSpaceOnUse"><stop offset="0" stop-color="#fdfdfe"/><stop offset=".06" stop-color="#fdfdfe" stop-opacity=".86"/><stop offset=".16" stop-color="#fdfdfe" stop-opacity=".66"/><stop offset=".26" stop-color="#fdfdfe" stop-opacity=".48"/><stop offset=".37" stop-color="#fdfdfe" stop-opacity=".33"/><stop offset=".47" stop-color="#fdfdfe" stop-opacity=".21"/><stop offset=".59" stop-color="#fdfdfe" stop-opacity=".12"/><stop offset=".71" stop-color="#fdfdfe" stop-opacity=".05"/><stop offset=".84" stop-color="#fdfdfe" stop-opacity=".01"/><stop offset="1" stop-color="#fdfdfe" stop-opacity="0"/></radialGradient><radialGradient id="radial-gradient-2" cx="686.97" cy="174.64" fx="686.97" fy="174.64" r="711.54" xlink:href="#radial-gradient"/><radialGradient id="radial-gradient-3" cx="683.69" cy="176.44" fx="683.69" fy="176.44" r="707.68" xlink:href="#radial-gradient"/><radialGradient id="radial-gradient-4" cx="687.6" cy="174.37" fx="687.6" fy="174.37" r="713.63" xlink:href="#radial-gradient"/><radialGradient id="radial-gradient-5" cx="686.65" cy="174.17" fx="686.65" fy="174.17" r="712.11" xlink:href="#radial-gradient"/><radialGradient id="radial-gradient-6" cx="687.77" cy="175.02" fx="687.77" fy="175.02" r="712.06" xlink:href="#radial-gradient"/><radialGradient id="radial-gradient-7" cx="686.98" cy="174.18" fx="686.98" fy="174.18" r="712.59" xlink:href="#radial-gradient"/><radialGradient id="radial-gradient-8" cx="687.04" cy="174.38" fx="687.04" fy="174.38" r="712.28" xlink:href="#radial-gradient"/><radialGradient id="radial-gradient-9" cx="687.01" cy="174.39" fx="687.01" fy="174.39" r="712.15" xlink:href="#radial-gradient"/><radialGradient id="radial-gradient-10" cx="687.1" cy="174.38" fx="687.1" fy="174.38" r="712.52" xlink:href="#radial-gradient"/><radialGradient id="radial-gradient-11" cx="687.4" cy="174.37" fx="687.4" fy="174.37" r="712.27" xlink:href="#radial-gradient"/><radialGradient id="radial-gradient-12" cx="686.87" cy="174.2" fx="686.87" fy="174.2" r="711.85" xlink:href="#radial-gradient"/><radialGradient id="radial-gradient-13" cx="686.99" cy="174.37" fx="686.99" fy="174.37" r="712.15" xlink:href="#radial-gradient"/><radialGradient id="radial-gradient-14" cx="687.09" cy="174.22" fx="687.09" fy="174.22" r="712.21" xlink:href="#radial-gradient"/><radialGradient id="radial-gradient-15" cx="687.05" cy="174.37" fx="687.05" fy="174.37" r="712.28" xlink:href="#radial-gradient"/><radialGradient id="radial-gradient-16" cx="687.08" cy="174.38" fx="687.08" fy="174.38" r="712.41" xlink:href="#radial-gradient"/><radialGradient id="radial-gradient-17" cx="687" cy="174.38" fx="687" fy="174.38" r="712.22" xlink:href="#radial-gradient"/><radialGradient id="radial-gradient-18" cx="687" cy="174.38" fx="687" fy="174.38" r="712.21" xlink:href="#radial-gradient"/><radialGradient id="radial-gradient-19" cx="687.37" cy="174.37" fx="687.37" fy="174.37" r="712.71" xlink:href="#radial-gradient"/><radialGradient id="radial-gradient-20" cx="686.98" cy="174.44" fx="686.98" fy="174.44" r="712.14" xlink:href="#radial-gradient"/><radialGradient id="radial-gradient-21" cx="687" cy="174.38" fx="687" fy="174.38" r="712.19" xlink:href="#radial-gradient"/><radialGradient id="radial-gradient-22" cx="687.05" cy="174.36" fx="687.05" fy="174.36" r="712.34" xlink:href="#radial-gradient"/><radialGradient id="radial-gradient-23" cx="687.09" cy="174.38" fx="687.09" fy="174.38" r="712.41" xlink:href="#radial-gradient"/><radialGradient id="radial-gradient-24" cx="687.06" cy="174.36" fx="687.06" fy="174.36" r="712.38" xlink:href="#radial-gradient"/><radialGradient id="radial-gradient-25" cx="687.05" cy="174.38" fx="687.05" fy="174.38" r="712.31" xlink:href="#radial-gradient"/><radialGradient id="radial-gradient-26" cx="688.58" cy="174.49" fx="688.58" fy="174.49" r="713.64" xlink:href="#radial-gradient"/><radialGradient id="radial-gradient-27" cx="687.04" cy="174.35" fx="687.04" fy="174.35" r="712.36" xlink:href="#radial-gradient"/><radialGradient id="radial-gradient-28" cx="686.94" cy="173.84" fx="686.94" fy="173.84" r="712.55" xlink:href="#radial-gradient"/><radialGradient id="radial-gradient-29" cx="686.96" cy="174.45" fx="686.96" fy="174.45" r="712.16" xlink:href="#radial-gradient"/><radialGradient id="radial-gradient-30" cx="687" cy="174.38" fx="687" fy="174.38" r="712.24" xlink:href="#radial-gradient"/><radialGradient id="radial-gradient-31" cx="687.02" cy="174.25" fx="687.02" fy="174.25" r="712.36" xlink:href="#radial-gradient"/><radialGradient id="radial-gradient-32" cx="687" cy="174.32" fx="687" fy="174.32" r="712.28" xlink:href="#radial-gradient"/><radialGradient id="radial-gradient-33" cx="687.05" cy="174.36" fx="687.05" fy="174.36" r="712.32" xlink:href="#radial-gradient"/><radialGradient id="radial-gradient-34" cx="687.04" cy="174.37" fx="687.04" fy="174.37" r="712.29" xlink:href="#radial-gradient"/><radialGradient id="radial-gradient-35" cx="687.03" cy="174.37" fx="687.03" fy="174.37" r="712.28" xlink:href="#radial-gradient"/><radialGradient id="radial-gradient-36" cx="687.02" cy="174.37" fx="687.02" fy="174.37" r="712.28" xlink:href="#radial-gradient"/><radialGradient id="radial-gradient-37" cx="687.01" cy="174.46" fx="687.01" fy="174.46" r="712.19" xlink:href="#radial-gradient"/><radialGradient id="radial-gradient-38" cx="687.01" cy="174.16" fx="687.01" fy="174.16" r="712.46" xlink:href="#radial-gradient"/><radialGradient id="radial-gradient-39" cx="687" cy="174.34" fx="687" fy="174.34" r="712.33" xlink:href="#radial-gradient"/><radialGradient id="radial-gradient-40" cx="686.91" cy="174.54" fx="686.91" fy="174.54" r="711.98" xlink:href="#radial-gradient"/><radialGradient id="radial-gradient-41" cx="686.98" cy="174.32" fx="686.98" fy="174.32" r="712.31" xlink:href="#radial-gradient"/><radialGradient id="radial-gradient-42" cx="687.05" cy="174.3" fx="687.05" fy="174.3" r="712.45" xlink:href="#radial-gradient"/><radialGradient id="radial-gradient-43" cx="687.08" cy="174.37" fx="687.08" fy="174.37" r="712.37" xlink:href="#radial-gradient"/><radialGradient id="radial-gradient-44" cx="686.97" cy="174.34" fx="686.97" fy="174.34" r="712.22" xlink:href="#radial-gradient"/><radialGradient id="radial-gradient-45" cx="686.95" cy="174.71" fx="686.95" fy="174.71" r="711.85" xlink:href="#radial-gradient"/><radialGradient id="radial-gradient-46" cx="687.05" cy="174.44" fx="687.05" fy="174.44" r="712.21" xlink:href="#radial-gradient"/><radialGradient id="radial-gradient-47" cx="686.99" cy="174.4" fx="686.99" fy="174.4" r="712.09" xlink:href="#radial-gradient"/><radialGradient id="radial-gradient-48" cx="687.01" cy="174.38" fx="687.01" fy="174.38" r="712.14" xlink:href="#radial-gradient"/><radialGradient id="radial-gradient-49" cx="687.16" cy="174.36" fx="687.16" fy="174.36" r="712.51" xlink:href="#radial-gradient"/><radialGradient id="radial-gradient-50" cx="687.1" cy="174.37" fx="687.1" fy="174.37" r="712.42" xlink:href="#radial-gradient"/><radialGradient id="radial-gradient-51" cx="687.05" cy="174.38" fx="687.05" fy="174.38" r="712.31" xlink:href="#radial-gradient"/><radialGradient id="radial-gradient-52" cx="687.05" cy="174.38" fx="687.05" fy="174.38" r="712.29" xlink:href="#radial-gradient"/></defs><g class="cls-41"><g id="Layer_2"><g id="Layer_5"><g><text class="cls-84" transform="translate(0 749.9)"><tspan x="0" y="0">NON</tspan><tspan class="cls-46" x="236.12" y="0">O</tspan><tspan x="312.49" y="0">VIUM</tspan></text><g><text/><g><g><path class="cls-124" d="M322.62,78.89c-.34,2.29-.78,4.64-1.32,7.06l-9.86-4.66-14.59-6.7c.22-6.99,.5-16.28,.73-23.24,6.55-2.51,15.03-5.73,22.08-8.4,1.09,2.98,1.98,6.13,2.65,9.5,1.52,7.71,1.8,16.47,.3,26.44Z"/><path class="cls-4" d="M220.51,42.09l9.51,3.95,.22-.08c8.3-3.32,19.39-7.67,27.73-10.84l3.35-8.58,3.41-7.26-7.57-2.8-6.48-2.43-11.99,3.78-12.72,4.3-7.15,7.67-6.73,8.72,8.43,3.58h0Z"/><path class="cls-122" d="M316.13,35.02l-11.68,4.27-12.56,4.71c-7.39-.12-15.98-6.5-22.84-9.26l2.43-8.31,2.62-7.44c3.61-1.15,7.93-2.49,12.13-3.78,13.11,3.8,24.65,9.95,29.9,19.8Z"/><path class="cls-137" d="M238.42,82.04l13.65,5.96,15.83-6.99,15.3-6.49,.51-6.45c.45-5.03,1.02-11.75,1.51-16.78-7.11-2.97-16.57-6.87-23.67-9.78l-8.72,3.42c-5.98,2.39-13.96,5.6-19.91,8.06-2.4,7-5.42,16.37-7.47,23.47l12.97,5.58h0Z"/><path class="cls-92" d="M173.24,52.89l14.3-6.84,14.3-6.3,7.51-8.82,7.96-7.76-4.14-2.31-2.69-2.03-12.45,4.68-12.62,5.21c-6.63,5.06-15.27,12.04-21.45,17.65,2.67,2.11,6.4,4.72,9.28,6.53h0Z"/><path class="cls-37" d="M205.31,145.82l17.27-9.29,17.16-8.78,1.74-15.27,2-14.48-14.01-6.16-13.27-5.75c-10.01,4.88-23.29,11.51-33.17,16.59-2.33,8.98-5.24,21.01-7.15,30.09,8.85,3.88,20.62,9.09,29.43,13.04h0Z"/><path class="cls-108" d="M179.39,93.59c9.08-4.59,21.25-10.67,30.44-15.06l2.24-1.05,2.17-6.55c1.93-5.11,4.44-11.97,6.57-17.02l-9.89-4.18-8.77-3.8-14.76,6.65-14.73,7.17c-4.37,7.16-9.97,16.84-13.83,24.28,6.12,2.95,14.37,6.78,20.58,9.57h0Z"/><path class="cls-142" d="M278.86,154.65l-.41,13.12c-3.83,5.06-7.94,10.27-12.36,15.63l-.04,1.4c-.67,.37-1.35,.74-2.04,1.11-6.05,7.27-12.66,14.82-19.85,22.67-.25,.15-.5,.28-.74,.42l-.25,.16c-10.02-5.13-23.45-11.82-33.56-16.77,.53-10.63,1.46-24.76,2.27-35.35,10.3-5.61,24.15-12.92,34.57-18.33,9.78,4.7,22.74,11.08,32.42,15.93Z"/><path class="cls-115" d="M308.1,121.09v1.08l-.71,.33c-2.42,4.71-5.14,9.59-8.19,14.67l-12.13,5.73c-8.86-4.42-20.73-10.21-29.64-14.53l-2.51-1.18,1.38-15.23,1.55-14.47,16.04-7.17,15.56-6.72,14.82,6.91,13.83,6.62c-2.4,7.42-5.69,15.39-10,23.95Z"/></g><g><path class="cls-65" d="M272.75,56.7c-.27,3.03-.54,6.18-.79,8.96l-.14,1.75-.12,1.34-10.69,4.54-12.44,5.5-10.29-4.5-6.03-2.61c1.22-3.95,2.61-8.24,3.97-12.32,4.91-2,10.52-4.26,15.15-6.13l1.06-.42,5.58-2.19c4.64,1.91,9.92,4.09,14.74,6.08Z"/><path class="cls-52" d="M275.99,29.24l1.21-3.46c4.51-1.42,9.57-2.97,13.96-4.3l6.49,2.18,5.29,1.83,.32,2.09,.22,1.79-5.47,2-10.73,4.04c-2.98-.59-7.17-2.81-10.61-4.63-.33-.18-.65-.34-.98-.52l.31-1.02Z"/><path class="cls-149" d="M237.74,25.89l9.2-2.91,2.79,1.07-1.76,4.51c-6.79,2.62-14.72,5.74-21.36,8.37l-4.58-1.92,5.17-5.55,10.54-3.56Z"/><path class="cls-150" d="M175.12,66.25l12.26-5.96,11.36-5.12,5.41,2.35,2.27,.96c-.84,2.2-1.68,4.46-2.47,6.54l-1.2,3.25-1.03,3.11c-7.92,3.8-17.77,8.7-26,12.84-2.79-1.26-5.77-2.65-8.7-4.01,2.77-4.98,5.74-10,8.12-13.97Z"/><path class="cls-31" d="M182.14,127.84c1.51-6.63,3.23-13.7,4.66-19.36,8.16-4.17,17.9-9.02,26.14-13.07l9.66,4.18,8.17,3.59-1.17,8.35-1.22,10.76-13.27,6.81-13.61,7.31c-6.08-2.7-13.03-5.79-19.35-8.57Z"/><path class="cls-19" d="M266.78,159.8l-.38,11.88-.31,11.73-.04,1.4c-.67,.37-1.35,.74-2.04,1.11-7.95,4.34-16.87,9.32-24.53,13.66-7.72-3.93-16.75-8.42-24.61-12.31,.45-8.01,1.05-17.11,1.61-25,8.38-4.5,18.25-9.74,26.63-14.1,7.46,3.61,16.14,7.88,23.68,11.62Z"/><path class="cls-76" d="M309.1,122.17l-1.58,.33-10.71,4.87-13,6.14c-7.32-3.64-15.97-7.86-23.29-11.41l.84-9.24,1.04-9.64,11.52-5.13,12.05-5.22,11.31,5.26,10.65,5.1,.17,9.21,1,8.65v1.08Z"/><path class="cls-10" d="M322.62,78.89l-11.12-5.28-9.5-4.36,.38-12.01c5.37-2.04,11.32-4.3,16.51-6.25,1.11,.47,2.26,.97,3.42,1.47,1.52,7.71,1.8,16.47,.3,26.44Z"/></g></g><g><g><path class="cls-23" d="M549.47,153.59c12.1,25.9,12.58,26.92,17.65,42.5l5.64,20c-1.11-2.65-2.97-6.1-4.68-8.44-3.86-10.77-9.33-24.99-13.94-35.46-1.75-5.77-4.08-13.46-6.27-19.06l-2.55-5.83c.97,1.34,2.42,3.01,3.2,4.45l.95,1.84"/><path class="cls-135" d="M525.29,114.75c4.69,6.84,11.01,15.91,15.35,22.97l-2.81-3.66c-6.4-9.12-15.24-21.1-22.29-29.75-4.74-6.23-11.35-14.32-16.58-20.16l1.4,1.33c7.74,8.55,18.11,19.98,24.93,29.28"/><path class="cls-36" d="M507.18,96.13c-3.99-2.2-9.37-5.01-13.47-6.97-8.66-7.68-20.43-17.65-29.58-24.74-4.57-4.83-10.87-11.08-15.83-15.53,3.91,1.41,9.08,3.36,12.9,4.94l.64,.27,14.92,10.84,14.08,11.84c5.11,5.61,11.72,13.32,16.35,19.34"/><path class="cls-85" d="M290.18,.1c2.84-.05,6.59-.1,9.41-.1,1.84,.03,4.28,.06,6.11,.1h.3l-.76,.16c-.95,.72-2.21,1.76-2.92,2.72-1.03,.9-2.23,2.4-2.61,3.71-.84-1.31-2.41-2.79-3.74-3.61l-3.2-2.23-3.1-.74h.49"/><path class="cls-117" d="M500.96,112.42c-6.24-2.61-14.56-6.01-20.83-8.5-8.09-8.38-19.08-19.31-27.65-27.18l-3.92-8.44-5-8.02c5.91,1.94,13.74,4.61,19.62,6.65,9.06,7.32,20.9,17.34,29.43,25.24,2.81,5.93,6.22,14.03,8.35,20.24"/><path class="cls-134" d="M541.71,144.47c1.85,5.26,4.33,12.26,5.76,17.63-4.17-2.75-9.87-6.23-14.22-8.68-6.35-9.76-15.12-22.59-22.1-31.95-2.16-6.45-5.44-14.92-8.31-21.09,4.13,2.1,9.58,4.99,13.58,7.34,6.98,8.85,16.04,20.88,22.4,30.18l2.88,6.56"/><path class="cls-111" d="M250.72,4.23l-2.43,.2c4.12-.62,9.6-1.47,13.75-1.98l4.87-.47,10.18,.28,10.43,1.72c3.16,1.04,7.39,2.37,10.55,3.33-4.43-.93-10.38-1.89-14.89-2.41-8.61-.56-20.12-.96-28.74-.67h-3.33"/><path class="cls-89" d="M310.54,.28c2.9,.16,6.78,.41,9.7,.61l5.34,.48,.21,.07-7.62,.25-7.9,1.7c-2.73,.73-6.34,1.93-8.91,3.18,.91-.95,2.06-2.32,2.49-3.56,1.65-1.09,4.06-2.4,6-2.75l.69,.02"/><path class="cls-151" d="M270.23,1.42l-.07-.08c2.48-.22,5.78-.51,8.25-.68l5.23-.33,2.26-.07,4.3,.72,4.33,2.16c1.05,1.28,2.72,2.77,4.05,3.78-2.85-1.22-6.79-2.49-9.81-3.23l-9.35-1.85-9.08-.38-.11-.06"/><path class="cls-126" d="M565.63,240.09c-4.49-3.14-10.64-7.18-15.33-10.03-3.66-11.23-8.84-26.11-13.21-37.1,.77-7.63,1.36-17.85,1.29-25.52,4.41,2.57,10.21,6.13,14.44,8.98,4.49,10.61,10.16,24.93,13.91,35.82,.06,8.38-.32,19.51-1.11,27.85"/><path class="cls-27" d="M577.9,322.45l-1.79,11.21c.92-6.59,2.39-15.35,3.02-21.93l.73-7.31-1.95,18.03"/><path class="cls-130" d="M578.15,241.6c1.2,11.52,2.52,26.92,2.95,38.48l-.04,5.17-1.13,15.05c-1.2-3.07-3.28-7.01-5.15-9.73-.89-11.79-2.4-27.46-4.12-39.16,.7-8.45,1.2-19.79,1.02-28.28,1.75,2.57,3.83,6.17,4.91,9.08l1.31,7.81,.24,1.58"/><path class="cls-131" d="M237.91,6.49l1.93-.52,3.27-.36c-6.37,1.33-14.86,3.24-21.19,4.85-5.75,1.77-13.49,3.92-19.14,6.01q14.68-4.85,35.14-9.97"/><path class="cls-77" d="M458.92,50.43c9.43,7.04,21.68,16.84,30.6,24.51l-1.2-1.03-.05-.05-13.84-11.57-14.7-10.6-10.45-7.36-10.94-6.81,2.32,1.25c5.49,3.46,12.98,7.89,18.27,11.67"/><path class="cls-50" d="M411.49,23.88c5.2,2.48,12.2,5.67,17.32,8.32l-3.02-1.42-15.98-7.08-16.58-5.89-11.12-3.85-11.06-3.22c2.51,.34,5.85,.82,8.36,1.33l.28,.07,4.37,1.34c14.16,4.92,19.47,6.77,27.43,10.41"/><path class="cls-127" d="M382.14,14.97c-4.55-.58-10.6-1.33-15.14-1.85l-19.74-3.31-19.09-1.81c-6.19-.4-14.49-.72-20.7-.73,5.27-.28,12.34-.67,17.62-.93l17.88,.67,17.36,2.02c6.57,1.63,15.31,3.99,21.81,5.94"/><path class="cls-101" d="M439.59,39.04l10.24,6.84c-4.05-1.48-9.49-3.38-13.6-4.69-10.44-5.04-24.5-11.45-35.26-15.76-5.98-2.78-14.05-6.26-20.18-8.65,4.41,.7,10.29,1.67,14.69,2.45l16.99,6.15,16.35,7.33,10.76,6.32"/><path class="cls-47" d="M337.17,2.94c2.29,.32,5.33,.73,7.62,1.07l1.82,.28-.59-.07-2.35-.04-12.73-.53-13.17,.76c-4.35,.44-10.12,1.2-14.4,2.04,2.52-.81,5.89-1.9,8.37-2.82l8.97-1.42,8.64-.13,7.8,.84"/><path class="cls-34" d="M388.07,21.62l-9.35-1.64-9.77-1.65-19.5-4.71-20.02-3.4c-6.18-.91-14.45-1.86-20.67-2.34,5.98,.15,13.94,.36,19.91,.53l20.54,2.28,18.72,3.41c6.11,2.07,14.18,5.04,20.14,7.51"/><path class="cls-72" d="M360.82,7.11c3.75,.92,8.76,2.13,12.5,3.14l-8.53-2.21-10.51-2.31,1.07,.18,5.47,1.2"/><path class="cls-128" d="M356.93,6.55l10.69,2.39c-2.85-.31-6.65-.62-9.5-.8l-16.76-1.76-17.31-.41c-5.55,.07-12.99,.38-18.53,.87,4.07-.65,9.49-1.53,13.55-2.19l14.07-.63,13.6,.78,10.19,1.75"/><path class="cls-61" d="M368.75,29.09l5.19,5.17c-6.39-1.9-14.88-4.44-21.23-6.37-8.77-4.34-20.62-9.85-29.7-13.5-4.26-1.73-10.07-3.77-14.5-5.02,5.54,1.03,12.92,2.41,18.47,3.43,10.78,3.13,25.04,7.67,35.56,11.56l6.22,4.72"/><path class="cls-25" d="M413.1,71.23l-.04,7.87c-7.65-2.88-17.83-6.75-25.46-9.69-6.67-7.15-15.75-16.54-22.84-23.27l-1.36-6.15-2.63-5.58c6.58,2.13,15.34,4.94,21.93,7.02,8.9,6.25,20.62,14.82,29.1,21.62l1.28,7.77"/><path class="cls-82" d="M352.93,33.81l1.77,5.59c-5.88-2.32-13.71-5.47-19.54-7.92-5.71-4.85-13.51-11.11-19.63-15.41-2.49-2.09-6.08-4.51-8.95-6.02,4.53,1.45,10.56,3.31,15.1,4.66,8.62,3.91,19.97,9.44,28.24,14.03l3.01,5.06"/><path class="cls-119" d="M475.84,116.99l-1,10.69c-7.95-3.14-18.57-7.32-26.55-10.44-6.66-8.98-15.73-20.82-22.88-29.43l.25-8.79-1.04-8.26c7.18,2.5,16.73,5.84,23.89,8.35,8.31,8.1,19.17,19.12,26.97,27.69l.36,10.19"/><path class="cls-17" d="M377.26,23.51l7.94,4.72c-6.32-1.46-14.74-3.38-21.07-4.82-10.81-3.62-25.36-8.14-36.4-11-5.52-1.34-12.94-2.89-18.56-3.79,6.08,.6,14.15,1.41,20.2,2.02l19.81,3.71,19.41,4.99,8.66,4.17"/><path class="cls-144" d="M452.47,57.73c-5.82-1.89-13.6-4.34-19.44-6.15-10.17-5.85-23.9-13.36-34.46-18.52l-7.78-5.27-8.54-4.73,9.72,1.9,9.3,1.95,3.95,1.52c9.52,4.23,22.17,9.98,31.42,14.76,4.92,4.16,11.27,9.96,15.82,14.54"/><path class="cls-98" d="M436.12,61.1l4.01,7.92c-7-2.34-16.34-5.46-23.33-7.82-8.91-6.57-20.98-15.1-30.28-21.1l-4.89-5.72-5.96-5.29c6.43,1.64,15,3.79,21.42,5.41,10.33,5.45,23.94,12.98,33.89,19.08l5.14,7.51"/><path class="cls-148" d="M528.51,182.14c-6.86-3.2-16-7.36-22.9-10.43-5.64-10.34-13.44-24.01-19.66-34.03l1.1-11.11-.24-10.59c6.37,2.63,14.85,6.18,21.19,8.92,6.78,9.53,15.6,22.44,21.76,32.38,0,7.47-.45,17.44-1.25,24.87"/><path class="cls-147" d="M231.49,8.51c6.15-1.26,14.36-2.79,20.58-3.76,9.11-.28,21.3-.25,30.39,.3,4.76,.73,11.1,1.69,15.85,2.42-5.5-.58-12.88-1.12-18.41-1.3-10.79,.08-25.18,.56-35.93,1.51-3.75,.2-8.75,.52-12.48,.82"/><path class="cls-48" d="M355.97,210.26l-15.44,10.7c-10.16-5.47-23.64-12.89-33.66-18.59-.25-11.25-.58-26.28-.83-37.56,8.11-5.45,18.82-12.87,26.74-18.6l.47,.24c9.04,4.83,21.2,11.18,30.38,15.8l3.61,18.3,3.3,18.93-14.56,10.78"/><path class="cls-71" d="M299.61,297.37c-10.84-6.26-25.22-14.73-35.92-21.24,.47-12.2,1.17-28.44,1.77-40.63,10.22-5.71,23.8-13.44,33.89-19.32,10.21,5.86,23.89,13.55,34.21,19.18l1.11,20.16,.98,20.43c-10.75,6.53-25.16,15.12-36.04,21.43"/><path class="cls-54" d="M253.9,373.35c-11-6.71-25.59-15.84-36.43-22.81,.23-12.46,.62-29.07,1.1-41.51,10.97-5.53,25.56-12.96,36.49-18.58,10.75,6.58,25.19,15.24,36.09,21.58-.02,11.17-.04,26.06-.05,37.21v4.44c-11.12,5.97-25.99,13.86-37.2,19.68"/><path class="cls-6" d="M317.86,434.6l-18.17,8.77-18.02-8.7-18.27-9.28-.54-18.29-.37-19.25c11.23-5.75,26.11-13.56,37.23-19.54,10.73,5.66,25.08,13.11,35.91,18.54l1.69,.85-.36,19.21-.56,18.3-18.53,9.4"/><path class="cls-26" d="M367.28,149.13c-9.07-4.52-21.09-10.63-30.03-15.36-1.69-9.69-4.02-22.58-5.88-32.23,5.04-4.68,11.63-11.1,16.34-16.1,7.82,3.83,18.3,8.81,26.21,12.44,4.25,9.37,9.75,21.96,13.62,31.49-5.92,6.09-14.03,14.02-20.28,19.77"/><path class="cls-39" d="M537.96,392.8l-11.3,13.29-7.52-4.43-9.01-4.76,3.1-18.44,2.03-19.27c7.03-8.33,16.08-19.7,22.51-28.48,4.96,3.11,11.5,7.32,16.26,10.69-1.45,11.35-3.7,26.49-5.96,37.72l-10.11,13.68"/><path class="cls-96" d="M432.7,201.68l-12.31,11.9-17.7-7.57-17.49-7.85-3.98-18.84-4.34-18.22c6.48-6.04,14.98-14.28,21.11-20.65,9.49,3.99,22.13,9.31,31.64,13.26,4.35,10.76,9.94,25.18,13.85,36.11l-10.79,11.86"/><path class="cls-99" d="M510.28,347.05l-6.53-3.22c-6.04-2.89-14.12-6.77-20.2-9.6l-.96-20.85-1.84-20.02,12.35-13.61,10.9-13.65c7.69,3.56,17.88,8.37,25.49,12.1,1.36,12.05,2.87,28.13,3.5,40.23-6.53,8.8-15.61,20.28-22.71,28.62"/><path class="cls-24" d="M181.46,540.85l-.68-.34-.18-.08,12.09,5.16,11.94,4.5,1.2,.4c-7.37-2.73-17.17-6.48-24.37-9.64"/><path class="cls-145" d="M484.48,267.19l-12.36,13.38c-6.27-2.67-14.64-6.28-20.91-8.95l-12.96-5.48-3.41-20.06-4.08-19.81,12.41-12.23,10.88-12.21c9.29,3.88,21.65,9.08,30.93,12.99,3.36,11.62,7.62,27.17,10.44,38.93l-10.94,13.44"/><path class="cls-20" d="M231.8,558.03c-4.98-1.29-11.58-3.01-16.51-4.45l-5.25-1.75c.72-.48,1.79-.85,2.6-1.13l12.01,3.92,11.48,3.29c.14,.05,.3,.09,.43,.17,.15,.07,.31,.12,.45,.18,.16,.03,.29,.13,.44,.16,.15,.05,.29,.12,.46,.15,3.05,.9,7.07,2.29,10.2,2.88-4.91-.95-11.46-2.22-16.31-3.42"/><path class="cls-67" d="M275.47,491.67l-15.18,5.97c-10.05-4.56-23.4-10.78-33.35-15.58-1.53-9.05-3.41-21.14-4.66-30.23l16.05-6.88,16.88-7.52,18.08,9.11,17.81,8.45v3.57c.12,7.97,.26,18.58,.38,26.54l-16.01,6.58"/><path class="cls-44" d="M528.93,442.3l-10.31,11.79-.06-.05c-1.42-1.97-3.64-4.39-5.48-6.04l7.71-16.06,6.22-15.85,11.12-13.06,9.94-13.44c1.87,2.15,4.18,5.21,5.52,7.72-4.3,9.96-10.35,23.12-15.38,32.73l-9.28,12.27"/><path class="cls-79" d="M198.83,547.58l-12.34-4.99-12.44-5.65c-7.49-4.59-17.33-10.98-24.38-16.2,1.58-1.25,3.88-2.72,5.64-3.72l14.02,7.52,13.99,6.86,9.19,7.85,9.64,6.68c-1.03,.4-2.41,.97-3.32,1.63"/><path class="cls-81" d="M524.85,451.59c-17.15,21.35-18.18,22.64-31.36,35.49l-2.79,2.65,1.36-1.71,11.59-12.49,10.75-13.46,10.1-11.45,9.13-11.95-.95,1.87-7.82,11.06"/><path class="cls-56" d="M199.52,485.77l-12.05,4.66-4.85-2.64c-8.33-4.74-19.4-11.11-27.6-16.05-3.08-9.14-6.92-21.4-9.46-30.73,8-3.45,18.7-8.03,26.71-11.49,10.33,6.37,24.21,14.74,34.72,20.8l.55,3.59c1.44,8.02,3.39,18.77,5.11,26.74l-13.13,5.12"/><path class="cls-93" d="M229.52,432.3l-16.24,7.13c-10.65-6.22-24.72-14.67-35.15-21.18-1.1-11.28-2.39-26.3-3.07-37.57,10.16-4.84,23.69-11.32,33.81-16.26,7.33,4.71,17.08,11.03,24.5,15.6l11.83,7.1c.33,11.27,.84,26.29,1.34,37.56l-17.02,7.63"/><path class="cls-102" d="M234.13,555.79l-11.95-3.77-12.5-4.34-8.84-6.49-8.45-7.7,6.4-2.22,7.69-2.59,14.37,6.1,13.97,5.5,5.33,7.65,4.84,5.46c-3.24,.73-7.53,2.55-10.86,2.41"/><path class="cls-110" d="M188.54,523.79l-6.72,2.46-14.36-7.26-14.36-7.89c-5.32-6.86-12.15-16.26-16.91-23.55,5.01-2.21,11.71-5.1,16.76-7.24,9.44,5.58,22.15,12.82,31.76,18.09l5.68,11.83,6.14,10.72-7.99,2.85"/><path class="cls-57" d="M484.02,413.38l-15.75,12.22-13.08-5.36-14.48-5.84,2.1-18.39,1.38-19.28c9.93-7.69,22.96-18.23,32.46-26.39,8.13,3.73,18.93,8.76,26.99,12.6l-1.91,19.28-2.95,18.42-14.77,12.73"/><path class="cls-80" d="M312.27,533.52l-13.42,4.54-13.15-4.48-13.91-5.08-1.51-10.3-1.4-11.44,14.85-5.72,15.74-6.36c9.16,3.67,21.41,8.46,30.65,11.96l-1.71,11.47-1.85,10.3-14.3,5.12"/><path class="cls-21" d="M406.42,428.24l-18.52,10.59c-10.07-4.16-23.45-9.78-33.46-14.09l-.85-.39,.83-18.29,.53-19.3,18.81-11.21,18.58-11.85,18.07,8.15,17.46,7.56-1.22,19.22-1.86,18.4-18.37,11.22"/><path class="cls-103" d="M455.34,517.81c-7.19,4.52-16.87,10.43-24.3,14.59l13.23-7.85,12.8-9.13,12.23-8.4,11.68-9.02-1.21,1.4c-7.22,5.66-16.79,13.3-24.43,18.41"/><path class="cls-136" d="M420.02,524.72c-3.54-1.2-8.26-2.75-11.81-3.89l-3.1-.95,6.63-10.82,6.08-11.89,16.63-9.1,16.27-9.72c4.86,1.95,11.32,4.66,16.13,6.78l-8.36,12.22-9.36,11.6c-8.65,4.89-20.29,11.23-29.12,15.77"/><path class="cls-86" d="M247.54,531.73l-10.48,3.33-14.41-5.88-14.83-6.45-5.43-10.62-5.04-11.72,11.78-4.45,12.95-4.92c9.75,4.62,22.8,10.66,32.64,15.04l2.13,11.49,2.29,10.34-11.58,3.84"/><path class="cls-112" d="M432.06,479.91l-17.06,9.36-12.78-4.32-13.82-4.92c1.96-9.08,4.4-21.23,6-30.37l18.37-10.42,18.27-11.07,14.57,5.67,13.06,5.16-4.61,15.95-5.31,14.9-16.69,10.06"/><path class="cls-118" d="M275.78,560.11c-6.6-1.65-15.33-3.98-21.87-5.81l-4.56-6.26-3.86-6.69,10.11-3.02,11.23-3.55,13.49,4.76,12.63,4.14,.22,6.95,.24,5.64c-5.29,1.2-12.24,3.96-17.64,3.84"/><path class="cls-1" d="M480.61,471.71l-3.12,2.29c-4.62-2.11-10.82-4.84-15.48-6.8l-.82-.36,5.75-15.06,4.96-15.97,15.39-11.97,14.53-12.44,9.03,4.52,7.53,4.24-6.45,16.83-7,14.91c-7.19,6.06-16.79,14.14-24.31,19.79"/><path class="cls-83" d="M364.21,555.31c-3.42-.62-7.95-1.49-11.33-2.2,3.6-3.78,8.21-9.05,11.34-13.22l14.9-5.72,15.37-6.4c4.35,1.31,10.12,3.03,14.45,4.39-4.84,4.1-11.36,9.52-16.55,13.14l-2.12,1.34c-7.78,2.73-17.86,8.15-26.07,8.66"/><path class="cls-138" d="M377.31,528.64l-15.28,6.05c-6.78-2.05-15.78-4.83-22.55-6.97l2.65-10.32,2.42-11.51,16.75-7.35,17.19-8.01,13.49,4.73,12.46,4.17-5.43,11.79-5.9,10.68-15.81,6.73"/><path class="cls-35" d="M413.08,541.01l-12.51,5.23-.59-.65-1.98-.88c6.25-4.18,14.37-10.06,20.16-14.83,8.57-4.32,19.92-10.32,28.31-14.98,1.44,.94,3.32,2.26,4.46,3.53l-12.37,8.92-12.98,7.75-12.5,5.91"/><path class="cls-105" d="M475.08,501.06l-12.51,8.87c-1.25-1.38-3.21-2.97-4.73-4.02l9.53-11.31,9.11-12.77,5.26-3.88c6.55-5.17,15.27-12.12,21.61-17.57,1.79,1.55,4.09,3.8,5.47,5.75-6.27,7.85-14.91,18.17-21.79,25.53l-11.94,9.41"/><path class="cls-16" d="M436.6,363.96l-17.59-7.61-18.07-8.16-.53-20.73-1.06-20.68,16.89-12.39,16.16-12.66,12.82,5.44c6.51,2.78,15.19,6.47,21.66,9.25l1.78,20.8,.82,20.2c-9.7,8.19-22.82,18.83-32.88,26.54"/><path class="cls-22" d="M406.63,280.88l-16.78,12.17c-11.21-5.29-26.13-12.43-37.27-17.9l-1.33-20.39-1.62-20.18,15.71-10.93,14.88-11.17,17.78,8.15,17.94,7.85,3.6,19.86,3.04,20.14-15.97,12.41"/><path class="cls-75" d="M365.11,361.76l-18.79,11.33c-11.35-5.76-26.46-13.53-37.73-19.47-.04-12.51-.13-29.17-.21-41.62,10.98-6.49,25.57-15.21,36.42-21.87,11.21,5.59,26.19,12.91,37.49,18.3l.88,20.71,.44,20.75-18.5,11.86"/><path class="cls-95" d="M331.43,557.42l-11.1,2.66-8.13-1.67-9.21-2.16,.75-5.66,.72-6.93,12.96-4.2,13.92-4.8c6.48,1.97,15.15,4.55,21.67,6.41-.07,.15-.17,.28-.26,.45-.07,.11-.16,.27-.24,.4-.08,.14-.18,.28-.25,.41-.09,.15-.18,.25-.26,.4-2.42,3.5-5.74,8.16-8.53,11.41l-12.03,3.27"/><path class="cls-45" d="M355.72,489.87l-17.06,7.58c-9.43-3.64-21.97-8.57-31.32-12.38,.21-9.04,.48-21.07,.65-30.12l18.02-8.58,18.34-9.13c10.14,4.3,23.68,9.93,33.87,14.07-1.23,8.19-2.91,19.09-4.4,27.17l-.61,3.15-17.5,8.24"/><path class="cls-78" d="M350.18,560.91l2.59-.6,9.13-2.89,12.3-3.51,12.7-4.2,1.68,.6,.31,.38c-13.3,4.21-21.35,6.75-38.7,10.22"/><path class="cls-59" d="M308.51,565.62c-3.98,.1-9.27,.19-13.26,.19-2.95-.07-6.9-.14-9.85-.58h-.18l-2.06-.54-1.88-2.09c5.03-.83,11.71-2.07,16.72-3.09l8.67,1.8,7.58,1.31-2.64,2.17-2.72,1.44h-.8"/><path class="cls-13" d="M266.15,564.05c-3.49-.44-8.12-1.04-11.56-1.54-3.55-.93-8.29-2.13-11.66-3.53,3-.49,6.98-1.18,9.97-1.75,6.23,1.57,14.54,3.61,20.8,4.97l3.11,2.24,2.89,.79c-4.06-.29-9.51-.72-13.54-1.19"/><path class="cls-107" d="M325.15,564.48c-3.15,.26-7.36,.62-10.52,.84l3.71-.88,3.7-2.24,10.61-2.26,11.59-2.86,3.7,.66c2,.27,4.64,.7,6.64,.93l-8.16,2.75-4.71,.95c-4.95,.7-11.56,1.62-16.57,2.11"/><path class="cls-90" d="M567.42,368.64c-10.03,27.71-10.21,28.23-17.84,43.24l-8.41,15.23,.76-1.65c4.99-9.72,11.31-22.84,15.56-32.92,3.47-7.68,7.83-18.1,10.62-26.07l-.69,2.17"/><path class="cls-143" d="M565.08,310.21l-6.67,14.81c-4.74-3.43-11.21-7.76-16.17-10.84-.77-12.07-2.14-28.11-3.66-40.08,3.99-8.35,8.91-19.67,12.14-28.31,4.75,2.91,11,6.94,15.54,10.17,1.57,11.76,3.3,27.49,4.05,39.33l-5.23,14.92"/><path class="cls-42" d="M531.78,262.11c-7.5-3.64-17.56-8.39-25.12-11.89-3.06-11.64-7.38-27.13-11.03-38.62l6.8-12.86,5.28-12.7c7.01,3.15,16.36,7.44,23.32,10.73,4.17,11.13,9.41,26.1,12.89,37.48-3.3,8.49-8.14,19.66-12.15,27.86"/><path class="cls-15" d="M560.03,382.59c-1.35-2.59-3.55-5.82-5.44-8.05,2.19-11.27,4.74-26.38,6.1-37.8l6.64-14.74,5.2-14.94c1.83,2.69,4.03,6.53,5.2,9.59-1.55,11.39-4,26.57-6.41,37.83-3.04,8.56-7.51,19.84-11.29,28.12"/><path class="cls-14" d="M429.52,140.43c-9.2-3.79-21.43-8.87-30.62-12.71-4.44-9.45-10.53-21.97-15.37-31.22l3.7-6.11c1.51-3.29,3.69-7.59,4.89-11,7.9,3.12,18.47,7.25,26.42,10.32,6.7,8.79,15.43,20.68,21.64,29.81-2.86,6.44-7.11,14.82-10.65,20.9"/><path class="cls-129" d="M492.52,187.36l-6.75,12.47c-9.06-3.79-21.14-8.84-30.23-12.59-4.29-10.84-10.22-25.2-14.99-35.83,3.6-6.35,8.13-15.01,11.05-21.7,8.17,3.25,19.05,7.58,27.2,10.85,5.91,10.18,13.56,23.92,18.92,34.41l-5.22,12.38"/><path class="cls-58" d="M378.1,78.72l-4.77,8.21c-7.61-3.43-17.74-8.1-25.26-11.73-3.6-7.51-8.52-17.46-12.49-24.79,1.49-3.47,3.17-8.22,3.99-11.91,6.16,2.65,14.41,6.11,20.62,8.64,6.5,6.92,14.98,16.32,21.04,23.62l-3.13,7.96"/></g><g class="cls-113"><path class="cls-70" d="M362.8,40.37l.68,2.16s.03,.01,.04,.01l-.26-1.18-.46-.99Z"/><path class="cls-100" d="M555.58,379.95l-.17,.94-.57,.73-2.14,2.9,1.96,2.27c.47,.55,1.5,1.78,2.64,3.31,.76-1.67,1.56-3.49,2.41-5.46l-.06-.12c-.91-1.77-2.39-3.94-3.83-5.83-.09,.4-.16,.85-.25,1.24Z"/><path class="cls-106" d="M378.86,34.55l-.33-.29-.09,.16c.14,.04,.27,.08,.42,.13Z"/><path class="cls-40" d="M423.45,85.79l1.11,.43,.05,.07,.22-7.4-1.02-7.6-.58-4.6-2.8-.94,.68,4.39,1,8.99v5.76c-.2,.29,.62,.61,1.35,.89Z"/><polygon class="cls-38" points="300.8 550.49 300.99 555.27 301.39 555.19 302.22 555.37 302.92 550.05 303.63 543.26 303.75 542.01 303.58 542.07 302.23 542.52 300.86 542.07 300.52 541.94 300.57 543.55 300.8 550.49"/><path class="cls-62" d="M457.99,511.98l2.24-1.51c-.46-.38-.94-.76-1.41-1.07l-.79-.54-2.21,2.76-.51,.62-.71,.4c-.13,.08-.25,.14-.38,.22,.44,.3,.91,.65,1.26,.92l2.52-1.79Z"/><path class="cls-5" d="M514.46,459.44l3.34-3.81c-1.32-1.63-2.83-3.31-4.16-4.51l-.21-.19-1.29,2.77-.39,.83-.71,.6c-.65,.53-1.31,1.12-1.96,1.66l.43,.38c.78,.68,2.32,2.09,3.82,3.71l1.15-1.44Z"/><path class="cls-33" d="M464.47,70.68c-2.47-.86-5.27-1.82-8.1-2.77l2.95,6.27c8.72,8.04,19.28,18.59,26.58,26.14,3.35,1.34,7.22,2.9,11.01,4.46-1.39-3.37-2.91-6.87-4.39-10.07-8.71-8.01-20.02-17.53-28.05-24.03Z"/><path class="cls-141" d="M543.4,152.48c-.55-1.61-1.1-3.17-1.6-4.63l-.69-1.99-2.77-6.24c-6.15-8.89-15.02-20.61-21.36-28.65-.71-.41-1.48-.85-2.25-1.27,1.27,3.27,2.52,6.64,3.59,9.8,7.13,9.59,15.53,21.96,21.29,30.76,1.2,.69,2.48,1.44,3.79,2.23Z"/><path class="cls-8" d="M545.89,174.84c-.19,5.58-.57,11.85-1.11,17.51,4.32,11.01,9.13,24.89,12.43,34.93,2.51,1.55,5.36,3.39,8.13,5.22,.38-6.22,.59-13.26,.56-19.53-3.78-10.9-9.12-24.28-13.1-33.74-2.12-1.39-4.53-2.9-6.92-4.38Z"/><path class="cls-139" d="M413.1,73.01v-2.19l-.94-5.45c-8.55-6.78-19.38-14.67-27.11-20.08-3.88-1.22-8.42-2.68-12.81-4.09l.62,2.79c7.11,6.81,15.5,15.54,21.4,21.85,5.7,2.18,12.64,4.82,18.84,7.19Z"/><path class="cls-64" d="M349.1,31.26c-3.26-1.76-7.05-3.72-11.04-5.69,1.11,.92,2.04,1.68,2.71,2.26,2.54,1.07,5.42,2.24,8.33,3.43Z"/><path class="cls-74" d="M449.6,82.79l-16.55-5.79,.19,1.48-.19,7.85c7.11,8.65,15.45,19.53,21.29,27.41,6.14,2.41,13.59,5.34,20.2,7.94l.46-5.09-.31-8.07c-7.94-8.67-18.22-19.01-25.09-25.72Z"/><path class="cls-121" d="M439.14,48c-.5-.44-.99-.86-1.47-1.27-2.86-1.47-6.18-3.12-9.98-4.91,3.78,2.07,7.35,4.09,10.44,5.87,.34,.1,.67,.21,1.02,.31Z"/><path class="cls-97" d="M431.33,60.5l3.46,1.15-3.4-4.93c-10.1-6.16-23.23-13.36-32.44-18.24l-6.19-1.56c9.66,6.25,21.36,14.57,29.4,20.49l9.17,3.08Z"/><path class="cls-28" d="M494.56,122.35l.09,4.12-.98,10.21c6.23,10.11,13.37,22.69,18.33,31.75,4.97,2.2,10.87,4.88,16.22,7.35,.4-5.51,.67-11.81,.71-17.31-6.22-9.88-14.36-21.79-20.32-30.17-4.27-1.84-9.34-3.99-14.05-5.95Z"/><path class="cls-116" d="M313.69,167.02l.5,23.05,.22,9.81c8.97,5.07,20.12,11.21,29.23,16.13l13.29-9.22,12.36-9.16-2.86-16.35-3.19-16.18c-8.29-4.2-18.53-9.55-26.75-13.92-7.03,5.03-15.69,11.03-22.82,15.85Z"/><path class="cls-140" d="M333.83,255.7l-.97-17.77c-9.35-5.11-20.87-11.58-30.11-16.88-9.14,5.31-20.57,11.82-29.81,16.98-.52,11.03-1.11,24.75-1.53,35.78,9.66,5.87,21.79,13.01,31.58,18.69,9.83-5.73,21.98-12.97,31.71-18.87l-.87-17.92Z"/><path class="cls-63" d="M289.1,351.14l1-1.89-1-9.85v-24.97c-8.99-5.8-21.28-13.18-31.09-19.15-9.89,5.07-22.23,11.35-32.17,16.38-.4,11.27-.74,25.31-.97,36.59,9.88,6.32,22.32,14.11,32.33,20.24,10.14-5.28,22.71-11.96,31.9-17.37Z"/><path class="cls-30" d="M303.08,438.66l16.33-7.86,16.22-8.22,.47-15.8,.31-16.51c-10.13-5.08-23.06-11.78-33.3-17.17-10.09,5.38-22.75,12.03-32.97,17.29l.3,16.62,.47,15.73,16.05,8.15,16.11,7.76Z"/><path class="cls-32" d="M374.11,101.04c-6.8-3.13-15.15-7.1-22.09-10.47-4.16,4.3-8.99,8.97-12.68,12.45,1.65,8.66,3.58,19.33,5.09,27.98,7.81,4.09,17.48,9.04,25.49,13.04,4.98-4.68,11-10.55,16.04-15.67-3.8-9.21-8.53-19.96-11.86-27.33Z"/><path class="cls-60" d="M524.5,397.94l4.61,2.71,9.01-10.6,9.37-12.69c2.08-10.52,4.08-23.91,5.4-33.97-3.32-2.27-7.19-4.8-10.69-7.02-5.63,7.5-12.93,16.71-19.49,24.54l-1.89,18-2.64,15.67,6.32,3.36Z"/><path class="cls-132" d="M442.03,188.86c-3.88-10.68-8.82-23.32-12.26-31.94-8.41-3.49-18.82-7.87-27.37-11.46-5.05,5.16-11.53,11.46-17.47,17.03l3.78,15.85,3.57,16.84,15.53,6.96,15.04,6.46,10.3-9.96,8.89-9.78Z"/><path class="cls-94" d="M508.97,340.03l3.6,1.78c6.12-7.33,13.59-16.78,19.51-24.67-.67-11.49-2.01-25.67-3.14-36.15-6.29-3.06-13.87-6.66-20.32-9.66l-8.82,11.07-11.29,12.44,1.68,18.17,.84,18.5c5.28,2.46,11.55,5.47,16.65,7.91l1.3,.62Z"/><path class="cls-53" d="M494.21,252.71c-2.73-11.18-6.47-24.8-9.34-34.8-8.09-3.4-18.07-7.57-26.3-11.03l-8.85,9.95-10.97,10.82,3.61,17.56,3.06,17.93,10.82,4.58,12.98,5.56,5.21,2.23,10.34-11.19,9.44-11.61Z"/><path class="cls-55" d="M291.1,458.6v-.94l-15.94-7.3-16.38-8.24-15.05,6.68-13.14,5.64c1.11,7.81,2.57,17.12,3.84,24.77,9.12,4.36,20.52,9.68,29.66,13.83l13.51-5.3,13.5-5.45v-23.68Z"/><path class="cls-73" d="M551.54,396.56l-6.63,8.96-10.82,12.76-5.99,15.2-6.52,13.6c.17,.17,.33,.33,.49,.52l7.04-8.09,9.11-12.04c4.52-8.78,10.09-20.9,14.01-29.9-.22-.33-.44-.68-.7-1.01Z"/><path class="cls-18" d="M185.62,536.05l-1.26-1.08-10.01-4.92c1.91,1.21,3.7,2.33,5.27,3.29l6.01,2.71Z"/><path class="cls-125" d="M188.09,484.11l3.06,1.66,10.22-3.95,9.79-3.82c-1.53-7.46-3.13-16.4-4.38-23.36l-.26-1.67c-10.37-6.02-22.73-13.49-31.19-18.68l-11.3,4.86-10.02,4.3c2.15,7.52,5.09,17.01,7.91,25.49,8.01,4.79,18.32,10.72,26.18,15.18Z"/><path class="cls-88" d="M211.96,369.25c-8.96,4.36-20.06,9.69-29.12,14.01,.71,10.73,1.82,23.52,2.68,32.48,9.23,5.73,21.38,13.06,31.41,18.94l14.27-6.27,14.37-6.43c-.43-10.08-.85-22.42-1.14-32.43l-9.85-5.93c-6.83-4.21-15.57-9.83-22.62-14.38Z"/><path class="cls-12" d="M226.95,548.03l11.21,3.51c.74-.02,1.64-.2,2.57-.42l-.35-.39-4.92-6.99-12.78-5.02-13-5.54-5.8,1.97,3.19,2.91,7.99,5.83,11.9,4.14Z"/><path class="cls-49" d="M172.87,515.28l12.59,6.38,5-1.84,3.27-1.15-3.62-6.34-5.24-10.89c-8.21-4.5-19.19-10.73-28.84-16.4-3.19,1.35-6.79,2.9-10.14,4.36,3.88,5.69,8.8,12.45,13.38,18.43l13.6,7.45Z"/><path class="cls-120" d="M471,420.76l13.8-10.71,13.44-11.59,2.69-16.88,1.61-16.08c-6.83-3.22-15-7.05-21.81-10.2-8.35,7.09-19.36,16.04-29.08,23.61l-1.24,17.39-1.75,15.36,11.51,4.66,10.83,4.44Z"/><path class="cls-7" d="M276.86,509.52l.99,8.19,1.14,7.7,11.53,4.21,11.71,3.98,12.05-4.08,11.93-4.25,1.42-7.91,1.18-7.96c-8.2-3.15-18.03-6.99-25.96-10.15l-14.16,5.7-11.83,4.58Z"/><path class="cls-69" d="M407.69,424.57l16.48-10.06,1.65-16.3,1.03-16.11-14.74-6.38-16.04-7.24-16.67,10.63-16.92,10.07-.46,16.99-.7,15.48c9.06,3.89,20.48,8.68,29.66,12.48l16.71-9.56Z"/><path class="cls-133" d="M423.04,520.14c7.67-3.97,17.86-9.5,26.7-14.49l8.85-10.97,5.27-7.72c-3.11-1.31-6.45-2.68-9.4-3.9l-14.44,8.65-15.63,8.56-5.5,10.73-3.95,6.48c2.63,.86,5.55,1.81,8.13,2.67Z"/><path class="cls-123" d="M209.64,510.46l4.65,9,13.44,5.86,12.9,5.24,9.02-2.85,7.91-2.63-1.47-6.61-1.74-9.44c-9.03-4.06-20.19-9.2-29.07-13.4l-11.23,4.29-7.68,2.87,3.29,7.69Z"/><path class="cls-104" d="M256.4,545.93l3.43,4.68c6.14,1.71,13.82,3.77,19.84,5.28,3.04-.06,6.92-1.18,10.66-2.25,.72-.22,1.41-.39,2.1-.59l-.09-2.23-.13-4.05-9.82-3.2-12.25-4.34-9.88,3.12-5.05,1.51,1.19,2.07Z"/><path class="cls-2" d="M478.92,438.33l-4.57,14.72-4.39,11.51c3.36,1.44,7.13,3.09,10.4,4.58l1.13-.83c6.99-5.25,15.68-12.51,23.38-19.02l6.61-14.08,5.03-13.12-4.35-2.47-6.36-3.18-12.38,10.63-14.49,11.27Z"/><path class="cls-43" d="M398.1,532.27l-13.99,5.82-13.89,5.32c-1.79,2.3-3.84,4.77-5.8,7.02,1.17,.22,2.33,.41,3.38,.61,5.01-.46,11.29-3.07,16.82-5.37,2.52-1.04,4.92-2.04,7.18-2.85l1.71-1.08c3.07-2.15,6.72-5.04,10.1-7.82-1.89-.58-3.78-1.13-5.52-1.65Z"/><path class="cls-68" d="M379.13,524.72l14.37-6.14,5.19-9.39,3.32-7.24-7.98-2.69-11.94-4.16-15.62,7.29-14.84,6.49-2,9.4-1.68,6.61c5.56,1.75,11.96,3.73,17.28,5.33l13.9-5.51Z"/><path class="cls-109" d="M506.57,466.01c-6.12,5.15-13.5,11.03-18.83,15.25l-4.82,3.55-8.73,12.23-3.9,4.64,5.73-4.07,11.77-9.3c5.79-6.26,13.25-15.13,18.93-22.15-.04-.04-.08-.1-.14-.15Z"/><path class="cls-87" d="M357.42,236.66l1.42,17.76,1.18,18c10.07,4.95,22.62,10.94,32.76,15.74l14.73-10.7,13.93-10.81-2.67-17.71-3.19-17.51-15.87-6.95-15.58-7.14-12.87,9.66-13.85,9.63Z"/><path class="cls-146" d="M316.18,351.07c10.26,5.39,23.05,11.96,33.33,17.2l16.8-10.14,16.4-10.49-.39-18.41-.77-18.09c-10.28-4.93-22.99-11.12-33.17-16.18-9.9,6.08-22.35,13.51-32.37,19.44,.07,11.3,.13,25.35,.18,36.67Z"/><path class="cls-114" d="M311.75,546.85l-.43,4.2-.26,1.99,5.47,1.26,7.1,1.46,10.18-2.46,10.65-2.88c1.43-1.75,3.15-4.02,5.19-6.87-4.92-1.44-10.32-3.05-14.86-4.43l-12.62,4.34-10.42,3.38Z"/><path class="cls-3" d="M357.37,486.01l15.48-7.29,.2-1.04c1.29-6.99,2.71-16.08,3.88-23.69-9.13-3.75-20.17-8.35-29.07-12.1l-16.59,8.26-15.74,7.52c-.15,7.65-.35,16.87-.52,24.57,8.39,3.38,18.65,7.44,26.91,10.63l15.44-6.86Z"/><path class="cls-9" d="M569.41,294.7c-.77-11.62-2.37-25.98-3.72-36.35-2.98-2.07-6.4-4.31-9.49-6.27-2.79,6.99-6.42,15.36-9.89,22.71,1.45,11.81,2.67,26.33,3.38,36.97,3.24,2.05,6.94,4.51,10.35,6.85l4.58-10.14,4.79-13.77Z"/><path class="cls-11" d="M531.06,199.87c-5.42-2.55-11.99-5.57-17.73-8.17l-3.6,8.68-6.14,11.65c3.46,11.16,7.32,25.01,10.02,35.19,6.04,2.81,13.32,6.24,19.56,9.24,3.22-6.84,6.85-15.24,9.66-22.38-3.47-11.17-8.2-24.6-11.78-34.21Z"/><path class="cls-66" d="M574.71,323.39l-6.51,14.52c-1.41,11.52-3.87,25.82-5.72,35.52,.08,.08,.15,.19,.22,.26,2.78-6.57,5.71-14.16,8-20.63,2.26-10.78,4.55-25.09,5.99-35.36l-1.98,5.69Z"/><path class="cls-29" d="M419.28,93.23c-6.54-2.52-14.56-5.66-21.43-8.36-.74,1.68-1.56,3.4-2.33,5.02l-1.07,2.29-2.7,4.48c4.58,8.86,9.84,19.73,13.66,27.8,7.83,3.28,17.54,7.3,25.65,10.65,2.57-4.65,5.39-10.22,7.67-15.16-6.15-8.9-13.83-19.3-19.45-26.72Z"/><path class="cls-91" d="M496.46,175.16c-5.31-10.26-12.14-22.47-17.2-31.2-6.72-2.7-15.03-6.02-22.09-8.83-2.7,5.76-5.96,11.95-8.51,16.5,4.58,10.33,9.81,23.04,13.52,32.39,7.69,3.18,17.14,7.13,25.08,10.44l4.92-9.11,4.29-10.19Z"/><path class="cls-51" d="M345.74,44.28c-.66,2.08-1.41,4.12-2.1,5.89,3.68,6.94,7.9,15.47,10.97,21.87,6.19,2.96,13.84,6.5,20.38,9.45l2.84-4.9,1.95-5.03c-5.17-6.11-12.22-14-18.64-20.88-4.69-1.9-10.35-4.26-15.4-6.41Z"/></g></g></g></g></g></g></g></svg>